# xmcd
#
# Track frame offsets: 
#        150
#        6688
#        13825
#        23138
#        34800
#        40283
#        47240
#        54153
#        59250
#        68115
#        73373
#        78908
#        84425
#        90900
#        102430
#        113388
#        122255
#        127475
#        135325
#        141860
#        152968
#        155985
#        166160
#        172113
#
# Disc length: 2453 seconds
#
# Revision: 4
# Processed by: cddbd v1.5.2PL0 Copyright (c) Steve Scherf et al.
# Submitted via: ExactAudioCopy v0.95b4
#
DISCID=4a099318
DTITLE=Charlottes Kinderchor - Kinder singen Weihnachtslieder
DYEAR=1988
DGENRE=Kinderlieder
TTITLE0=Lat uns froh und munter sein
TTITLE1=Alle Jahre wieder
TTITLE2=Es ist ein Ros entsprungen
TTITLE3=Es hat sich halt eröffnet
TTITLE4=Joseph, lieber Joseph mein
TTITLE5=Kling Glöckchen kling
TTITLE6=Liebe Nachtigal wach auf
TTITLE7=Kommet ihr Hirten
TTITLE8=Leise rieselt der Schnee
TTITLE9=Vom Himmel hoch da komm ich her
TTITLE10=Macht hoch die Tür
TTITLE11=Morgen Kinder wirds was geben
TTITLE12=Ser die Glocken nie klingen
TTITLE13=Es wird scho glei dumpa
TTITLE14=Vom Himmel hoch ihr Englein kommet
TTITLE15=In dulici Jubilo
TTITLE16=Morgen kommt der Weihnachtsmann
TTITLE17=Oh Tannenbaum
TTITLE18=Ihr Kinderlein kommet
TTITLE19=Fröhliche Weihnacht berall
TTITLE20=Am Weihnachtsbaum die Lichter brennen
TTITLE21=Oh du fröhliche
TTITLE22=Still, Still
TTITLE23=Stille Nacht
EXTD=YEAR: 1988
EXTT0=
EXTT1=
EXTT2=
EXTT3=
EXTT4=
EXTT5=
EXTT6=
EXTT7=
EXTT8=
EXTT9=
EXTT10=
EXTT11=
EXTT12=
EXTT13=
EXTT14=
EXTT15=
EXTT16=
EXTT17=
EXTT18=
EXTT19=
EXTT20=
EXTT21=
EXTT22=
EXTT23=
PLAYORDER=
